<svg xmlns="http://www.w3.org/2000/svg" width="1200" height="900" viewBox="0 0 1200 900" role="img" aria-labelledby="title desc">
  <title id="title">First Store CoolAir Mini gallery media</title>
  <desc id="desc">A gallery demo image showing the compact fan on a counter.</desc>
  <rect width="1200" height="900" fill="#f5f7fb"/>
  <rect x="0" y="660" width="1200" height="240" fill="#dce5ec"/>
  <rect x="156" y="128" width="888" height="560" rx="30" fill="#ffffff" stroke="#cbd5e1" stroke-width="4"/>
  <rect x="220" y="592" width="760" height="54" rx="10" fill="#e2e8f0"/>
  <circle cx="600" cy="370" r="168" fill="#e6f4f1" stroke="#157f73" stroke-width="14"/>
  <circle cx="600" cy="370" r="58" fill="#ffffff" stroke="#157f73" stroke-width="10"/>
  <path d="M600 202c58 34 92 82 100 146-64 4-120-20-166-68 14-34 36-60 66-78z" fill="#88cbc1"/>
  <path d="M768 370c-34 58-82 92-146 100-4-64 20-120 68-166 34 14 60 36 78 66z" fill="#88cbc1"/>
  <path d="M600 538c-58-34-92-82-100-146 64-4 120 20 166 68-14 34-36 60-66 78z" fill="#88cbc1"/>
  <path d="M432 370c34-58 82-92 146-100 4 64-20 120-68 166-34-14-60-36-78-66z" fill="#88cbc1"/>
  <rect x="542" y="548" width="116" height="62" rx="18" fill="#157f73"/>
  <text x="600" y="762" text-anchor="middle" font-family="Arial, sans-serif" font-size="40" font-weight="700" fill="#0f172a">Ready for COD orders</text>
  <text x="600" y="812" text-anchor="middle" font-family="Arial, sans-serif" font-size="28" fill="#475569">Gallery placeholder served by Wasilio locally</text>
</svg>
